<svg width="624" height="383" viewBox="0 0 624 383" fill="none" xmlns="http://www.w3.org/2000/svg">
<path d="M619 123C619 138.137 611.238 153.084 596.072 167.22C580.899 181.362 558.67 194.329 530.784 205.323C475.04 227.298 397.691 241 312 241C226.309 241 148.96 227.298 93.2165 205.323C65.33 194.329 43.1012 181.362 27.9276 167.22C12.7615 153.084 5 138.137 5 123C5 107.863 12.7615 92.9163 27.9276 78.7804C43.1012 64.6377 65.33 51.6711 93.2165 40.6774C148.96 18.7018 226.309 5 312 5C397.691 5 475.04 18.7018 530.784 40.6774C558.67 51.6711 580.899 64.6377 596.072 78.7804C611.238 92.9163 619 107.863 619 123Z" fill="#FEC226" stroke="#272727" stroke-width="10"/>
<path d="M179.156 163.5C176.531 164.375 173.219 164.812 169.219 164.812C165.219 164.812 160.469 164.312 154.969 163.312L155.297 167.062C155.297 167.625 154.938 167.906 154.219 167.906L146.156 168.141C144.969 168.078 144.312 167.469 144.188 166.312L142.406 148.172C142.406 147.547 142.781 147.203 143.531 147.141L152.719 146.297C153.312 146.297 153.641 146.656 153.703 147.375L154.312 154.969C158.812 155.438 163.297 155.672 167.766 155.672C172.234 155.672 175.359 154.922 177.141 153.422C178.922 151.891 179.812 149.594 179.812 146.531C179.812 143.781 178.766 141.531 176.672 139.781C175.578 138.844 174.156 137.922 172.406 137.016L159.562 130.781C155.031 128.625 151.922 126.906 150.234 125.625C148.547 124.312 147.25 123.031 146.344 121.781C144.531 119.25 143.625 116.281 143.625 112.875C143.625 109.438 144.156 106.516 145.219 104.109C146.281 101.672 147.781 99.5781 149.719 97.8281C153.781 94.1094 158.938 92.25 165.188 92.25C169.625 92.25 174.438 92.9531 179.625 94.3594C183.625 93.1406 186.125 92.5312 187.125 92.5312C188.156 92.5312 188.703 92.9531 188.766 93.7969L187.828 113.25C187.766 113.969 187.516 114.328 187.078 114.328L179.203 114.047C178.766 114.016 178.5 113.906 178.406 113.719C178.312 113.531 178.25 113.234 178.219 112.828L177.844 102.516C174.125 101.641 171.031 101.203 168.562 101.203C162.344 101.203 158.109 102.938 155.859 106.406C155.047 107.656 154.641 109.141 154.641 110.859C154.641 112.547 155.047 113.953 155.859 115.078C156.672 116.203 157.844 117.266 159.375 118.266C160.906 119.234 162.781 120.219 165 121.219L172.688 124.734C179.906 128.078 184.719 131.062 187.125 133.688C189.75 136.531 191.062 140.516 191.062 145.641C191.062 154.859 187.094 160.812 179.156 163.5ZM199.359 115.828C198.828 115.766 198.5 115.391 198.375 114.703L198.797 92.7188C198.797 92.1562 199.156 91.875 199.875 91.875L207.562 92.8125C208.188 92.8125 208.5 93.1719 208.5 93.8906V95.1094L244.453 94.7344L253.078 93.7969C253.766 93.7969 254.109 94.1406 254.109 94.8281L252.703 115.594C252.641 116.094 252.344 116.344 251.812 116.344L243.797 115.969C243.422 115.906 243.172 115.812 243.047 115.688C242.953 115.531 242.891 115.25 242.859 114.844L243 103.266L230.906 103.453L231.703 154.453L240.75 153.938C241.25 154.062 241.5 154.359 241.5 154.828L241.594 163.125C241.531 163.875 241.25 164.25 240.75 164.25L212.906 164.859C212.219 164.859 211.844 164.547 211.781 163.922L212.109 154.641C212.109 154.047 212.359 153.75 212.859 153.75L221.203 154.266L220.359 103.734L208.547 104.391L208.594 114.328C208.562 114.922 208.188 115.234 207.469 115.266L199.359 115.828ZM285.516 155.156C286.016 155.156 286.266 155.453 286.266 156.047L286.125 164.391C286.125 165.016 285.75 165.328 285 165.328L263.25 164.719C262.719 164.719 262.438 164.344 262.406 163.594L262.031 155.297C262.094 154.797 262.344 154.5 262.781 154.406L269.297 154.875L268.922 103.828L262.5 103.781C261.938 103.781 261.656 103.438 261.656 102.75L262.406 94.5C262.438 94.125 262.531 93.8906 262.688 93.7969C262.875 93.6719 263.156 93.5781 263.531 93.5156L285.422 94.3594C285.766 94.3906 285.984 94.4844 286.078 94.6406C286.172 94.7656 286.234 95.0312 286.266 95.4375L285.938 102.891C285.875 103.578 285.516 103.922 284.859 103.922H279.375L279.234 155.156H285.516ZM345.047 93.2812C346.297 93.2812 346.953 93.8906 347.016 95.1094L346.453 115.547C346.453 116.359 346.109 116.766 345.422 116.766L337.547 116.953C336.953 116.953 336.625 116.594 336.562 115.875L335.578 103.828C331.766 102.891 328.25 102.422 325.031 102.422C321.812 102.422 319.094 102.906 316.875 103.875C314.656 104.812 312.828 106.344 311.391 108.469C308.609 112.594 307.219 119.484 307.219 129.141C307.219 143.734 310.75 152.469 317.812 155.344C320.125 156.281 322.938 156.75 326.25 156.75C329.562 156.75 333.062 156.156 336.75 154.969L336.516 148.688C336.578 148.125 336.953 147.781 337.641 147.656L345.422 146.344C345.953 146.344 346.281 146.703 346.406 147.422L348.281 165.703C348.281 166.203 347.922 166.484 347.203 166.547L339.141 167.25C337.891 167.25 337.234 166.641 337.172 165.422L337.078 163.453C332.734 165.766 328.141 166.922 323.297 166.922C318.484 166.922 314.422 166.094 311.109 164.438C307.828 162.781 305.078 160.344 302.859 157.125C298.391 150.594 296.156 141.094 296.156 128.625C296.156 116.25 298.656 107.062 303.656 101.062C308.219 95.5625 314.734 92.8125 323.203 92.8125C328.516 92.8125 332.984 93.4062 336.609 94.5938L345.047 93.2812ZM394.125 103.312C393.562 103.312 393.281 102.969 393.281 102.281L394.031 93.5625C394.062 93.0312 394.438 92.7031 395.156 92.5781L414.703 92.9531C415.266 93.0156 415.547 93.375 415.547 94.0312L415.688 102.422C415.688 103.109 415.328 103.453 414.609 103.453L409.406 103.406L390.188 130.688L407.719 154.594L415.781 155.156C416.812 155.219 417.328 155.75 417.328 156.75L417.375 163.641C417.375 164.984 416.797 165.688 415.641 165.75L403.359 166.078C402.672 166.016 402.125 165.703 401.719 165.141L382.312 135.469L376.641 135.656V154.688H381.516C382.016 154.688 382.266 154.984 382.266 155.578L382.594 164.391C382.531 165.016 382.156 165.328 381.469 165.328L359.719 165.188C359.188 165.188 358.906 164.812 358.875 164.062L358.5 154.828C358.562 154.328 358.812 154.031 359.25 153.938L366.141 154.359V103.125L359.438 103.781C359.094 103.781 358.875 103.703 358.781 103.547C358.688 103.391 358.625 103.125 358.594 102.75L357.938 93.5625C358 92.9062 358.375 92.5781 359.062 92.5781L381.422 92.4844C381.766 92.5156 381.984 92.6094 382.078 92.7656C382.172 92.8906 382.234 93.1562 382.266 93.5625L381.469 102.422C381.375 103.109 381.016 103.453 380.391 103.453L376.641 103.219V127.594L382.547 127.219L398.438 103.359L394.125 103.312ZM463.219 154.922C463.781 154.922 464.062 155.266 464.062 155.953L463.312 164.203C463.281 164.578 463.172 164.828 462.984 164.953C462.828 165.047 462.562 165.125 462.188 165.188L437.25 164.484C436.906 164.484 436.688 164.406 436.594 164.25C436.5 164.094 436.438 163.812 436.406 163.406L436.734 155.484C436.797 154.797 437.156 154.453 437.812 154.453L445.172 154.594L445.312 138.797L425.25 103.734L421.219 104.016C420.344 104.016 419.906 103.516 419.906 102.516L419.438 94.5469C419.438 94.0156 419.547 93.6719 419.766 93.5156C419.984 93.3594 420.359 93.2812 420.891 93.2812H443.531C444.094 93.2812 444.422 93.4062 444.516 93.6562C444.609 93.9062 444.656 94.25 444.656 94.6875L444.188 102.422C444.156 102.953 444.031 103.297 443.812 103.453C443.625 103.609 443.281 103.703 442.781 103.734L437.625 103.547L451.594 131.625L465.094 103.922L459.141 104.062C458.766 104.062 458.5 103.984 458.344 103.828C458.219 103.672 458.125 103.391 458.062 102.984L457.359 95.1562C457.422 94.2188 457.891 93.75 458.766 93.75L480.141 93.4219C480.828 93.4844 481.172 93.9844 481.172 94.9219L480.703 102.516C480.672 103.016 480.562 103.375 480.375 103.594C480.188 103.781 479.828 103.875 479.297 103.875H475.219L455.766 138.844L455.438 154.781L463.219 154.922Z" fill="white"/>
<path d="M179.156 163.5L182.319 172.987L182.341 172.979L182.363 172.972L179.156 163.5ZM154.969 163.312L156.758 153.474L143.865 151.13L145.007 164.184L154.969 163.312ZM155.297 167.062H165.297V166.626L165.259 166.191L155.297 167.062ZM154.219 167.906V157.906H154.073L153.928 157.91L154.219 167.906ZM146.156 168.141L145.631 178.127L146.039 178.148L146.447 178.136L146.156 168.141ZM144.188 166.312L134.235 167.29L134.24 167.339L134.245 167.387L144.188 166.312ZM142.406 148.172H132.406V148.662L132.454 149.149L142.406 148.172ZM143.531 147.141L144.362 157.106L144.404 157.103L144.446 157.099L143.531 147.141ZM152.719 146.297V136.297H152.261L151.804 136.339L152.719 146.297ZM153.703 147.375L163.671 146.575L163.668 146.542L163.666 146.509L153.703 147.375ZM154.312 154.969L144.345 155.769L145.009 164.054L153.276 164.915L154.312 154.969ZM177.141 153.422L183.582 161.071L183.621 161.038L183.659 161.005L177.141 153.422ZM176.672 139.781L170.164 147.374L170.211 147.414L170.259 147.454L176.672 139.781ZM172.406 137.016L177.005 128.136L176.89 128.076L176.773 128.019L172.406 137.016ZM159.562 130.781L163.929 121.785L163.894 121.768L163.859 121.751L159.562 130.781ZM150.234 125.625L144.095 133.519L144.141 133.554L144.187 133.589L150.234 125.625ZM146.344 121.781L138.213 127.603L138.23 127.627L138.248 127.651L146.344 121.781ZM145.219 104.109L154.367 108.149L154.376 108.127L154.386 108.105L145.219 104.109ZM149.719 97.8281L156.422 105.249L156.446 105.227L156.471 105.204L149.719 97.8281ZM179.625 94.3594L177.009 104.011L179.786 104.764L182.54 103.925L179.625 94.3594ZM188.766 93.7969L198.754 94.2782L198.783 93.6677L198.738 93.0582L188.766 93.7969ZM187.828 113.25L197.791 114.116L197.807 113.924L197.817 113.731L187.828 113.25ZM187.078 114.328L186.721 124.322L186.9 124.328H187.078V114.328ZM179.203 114.047L178.491 124.021L178.668 124.034L178.846 124.041L179.203 114.047ZM178.219 112.828L168.225 113.192L168.233 113.394L168.248 113.595L178.219 112.828ZM177.844 102.516L187.837 102.152L187.56 94.5287L180.134 92.7815L177.844 102.516ZM155.859 106.406L164.244 111.856L164.249 111.848L155.859 106.406ZM159.375 118.266L153.907 126.638L153.968 126.678L154.029 126.716L159.375 118.266ZM165 121.219L169.159 112.125L169.134 112.113L169.109 112.102L165 121.219ZM172.688 124.734L176.891 115.661L176.868 115.65L176.846 115.64L172.688 124.734ZM187.125 133.688L179.753 140.445L179.765 140.458L179.777 140.47L187.125 133.688ZM175.994 154.013C174.733 154.434 172.58 154.812 169.219 154.812V174.812C173.858 174.812 178.33 174.316 182.319 172.987L175.994 154.013ZM169.219 154.812C166.002 154.812 161.881 154.405 156.758 153.474L153.18 173.151C159.057 174.22 164.435 174.812 169.219 174.812V154.812ZM145.007 164.184L145.335 167.934L165.259 166.191L164.931 162.441L145.007 164.184ZM145.297 167.062C145.297 165.059 146.061 162.014 148.864 159.82C151.201 157.991 153.547 157.906 154.219 157.906V177.906C155.609 177.906 158.494 177.681 161.19 175.57C164.353 173.095 165.297 169.628 165.297 167.062H145.297ZM153.928 157.91L145.866 158.145L146.447 178.136L154.509 177.902L153.928 157.91ZM146.682 158.154C147.655 158.206 149.696 158.562 151.578 160.309C153.487 162.081 154.012 164.152 154.13 165.238L134.245 167.387C134.488 169.629 135.404 172.583 137.969 174.965C140.507 177.321 143.47 178.013 145.631 178.127L146.682 158.154ZM154.14 165.335L152.358 147.195L132.454 149.149L134.235 167.29L154.14 165.335ZM152.406 148.172C152.406 149.972 151.783 152.674 149.445 154.817C147.38 156.71 145.18 157.038 144.362 157.106L142.701 137.175C141.133 137.306 138.37 137.837 135.93 140.074C133.217 142.561 132.406 145.747 132.406 148.172H152.406ZM144.446 157.099L153.633 156.255L151.804 136.339L142.617 137.183L144.446 157.099ZM152.719 156.297C150.874 156.297 148.164 155.651 146.025 153.309C144.145 151.25 143.812 149.06 143.741 148.241L163.666 146.509C163.532 144.971 163.004 142.243 160.795 139.824C158.328 137.122 155.157 136.297 152.719 136.297V156.297ZM143.735 148.175L144.345 155.769L164.28 154.169L163.671 146.575L143.735 148.175ZM153.276 164.915C158.116 165.419 162.947 165.672 167.766 165.672V145.672C163.647 145.672 159.509 145.456 155.349 145.023L153.276 164.915ZM167.766 165.672C172.717 165.672 178.953 164.969 183.582 161.071L170.699 145.773C171.362 145.215 171.721 145.243 171.127 145.386C170.561 145.521 169.495 145.672 167.766 145.672V165.672ZM183.659 161.005C188.279 157.034 189.812 151.563 189.812 146.531H169.812C169.812 147.116 169.725 147.183 169.821 146.936C169.871 146.806 169.961 146.618 170.109 146.406C170.259 146.193 170.435 145.999 170.622 145.839L183.659 161.005ZM189.812 146.531C189.812 140.845 187.472 135.775 183.085 132.108L170.259 147.454C170.286 147.477 170.249 147.45 170.181 147.363C170.111 147.274 170.031 147.151 169.961 147C169.891 146.849 169.85 146.713 169.828 146.612C169.808 146.514 169.812 146.48 169.812 146.531H189.812ZM183.18 132.189C181.332 130.605 179.207 129.276 177.005 128.136L167.808 145.896C169.105 146.567 169.824 147.083 170.164 147.374L183.18 132.189ZM176.773 128.019L163.929 121.785L155.196 139.777L168.039 146.012L176.773 128.019ZM163.859 121.751C159.338 119.6 157.068 118.258 156.281 117.661L144.187 133.589C146.776 135.555 150.725 137.65 155.266 139.811L163.859 121.751ZM156.374 117.731C155.167 116.793 154.626 116.168 154.44 115.912L138.248 127.651C139.874 129.894 141.926 131.832 144.095 133.519L156.374 117.731ZM154.474 115.959C153.993 115.287 153.625 114.4 153.625 112.875H133.625C133.625 118.163 135.07 123.213 138.213 127.603L154.474 115.959ZM153.625 112.875C153.625 110.421 154.01 108.956 154.367 108.149L136.071 100.07C134.302 104.075 133.625 108.454 133.625 112.875H153.625ZM154.386 108.105C154.891 106.947 155.56 106.028 156.422 105.249L143.016 90.4071C140.003 93.1285 137.672 96.3968 136.052 100.114L154.386 108.105ZM156.471 105.204C158.439 103.403 161.075 102.25 165.188 102.25V82.25C156.8 82.25 149.124 84.816 142.967 90.4519L156.471 105.204ZM165.188 102.25C168.578 102.25 172.501 102.789 177.009 104.011L182.241 84.7077C176.374 83.1172 170.672 82.25 165.188 82.25V102.25ZM182.54 103.925C184.455 103.342 185.879 102.945 186.868 102.704C187.364 102.583 187.664 102.523 187.809 102.497C188.043 102.457 187.728 102.531 187.125 102.531V82.5312C185.274 82.5312 183.316 82.984 182.132 83.2727C180.621 83.6409 178.795 84.1585 176.71 84.7935L182.54 103.925ZM187.125 102.531C186.472 102.531 184.353 102.426 182.201 100.765C179.729 98.8592 178.92 96.2573 178.793 94.5356L198.738 93.0582C198.548 90.4927 197.435 87.258 194.417 84.9298C191.717 82.8473 188.81 82.5312 187.125 82.5312V102.531ZM178.777 93.3155L177.84 112.769L197.817 113.731L198.754 94.2782L178.777 93.3155ZM177.866 112.384C177.898 112.007 178.062 110.249 179.385 108.348C180.123 107.286 181.221 106.192 182.739 105.398C184.257 104.605 185.783 104.328 187.078 104.328V124.328C190.573 124.328 193.81 122.634 195.803 119.769C197.376 117.508 197.695 115.212 197.791 114.116L177.866 112.384ZM187.435 104.334L179.56 104.053L178.846 124.041L186.721 124.322L187.435 104.334ZM179.916 104.072C180.262 104.097 181.254 104.189 182.483 104.695C183.754 105.218 185.975 106.495 187.351 109.247L169.462 118.191C170.931 121.13 173.332 122.556 174.868 123.188C176.363 123.804 177.707 123.965 178.491 124.021L179.916 104.072ZM187.351 109.247C187.815 110.175 188.001 110.945 188.075 111.295C188.158 111.69 188.182 111.967 188.189 112.061L168.248 113.595C168.303 114.306 168.47 116.207 169.462 118.191L187.351 109.247ZM188.212 112.465L187.837 102.152L167.85 102.879L168.225 113.192L188.212 112.465ZM180.134 92.7815C176.026 91.8147 172.101 91.2031 168.562 91.2031V111.203C169.961 111.203 172.224 111.467 175.553 112.25L180.134 92.7815ZM168.562 91.2031C160.771 91.2031 152.371 93.4079 147.47 100.964L164.249 111.848C164.148 112.004 164.071 111.939 164.513 111.758C165.079 111.526 166.315 111.203 168.562 111.203V91.2031ZM147.475 100.956C145.454 104.065 144.641 107.509 144.641 110.859H164.641C164.641 110.789 164.649 110.885 164.591 111.097C164.53 111.318 164.418 111.587 164.244 111.856L147.475 100.956ZM144.641 110.859C144.641 114.186 145.463 117.763 147.753 120.933L163.966 109.223C164.27 109.643 164.454 110.063 164.552 110.404C164.646 110.729 164.641 110.904 164.641 110.859H144.641ZM147.753 120.933C149.471 123.312 151.658 125.169 153.907 126.638L164.843 109.893C164.03 109.362 163.873 109.094 163.966 109.223L147.753 120.933ZM154.029 126.716C156.064 128.004 158.38 129.204 160.891 130.336L169.109 112.102C167.183 111.234 165.748 110.465 164.721 109.815L154.029 126.716ZM160.841 130.313L168.529 133.829L176.846 115.64L169.159 112.125L160.841 130.313ZM168.484 133.808C175.623 137.115 178.806 139.412 179.753 140.445L194.497 126.93C190.631 122.713 184.19 119.041 176.891 115.661L168.484 133.808ZM179.777 140.47C180.205 140.934 181.062 142.195 181.062 145.641H201.062C201.062 138.836 199.295 132.129 194.473 126.905L179.777 140.47ZM181.062 145.641C181.062 148.841 180.379 150.553 179.765 151.473C179.207 152.31 178.199 153.266 175.949 154.028L182.363 172.972C188.051 171.046 192.996 167.682 196.406 162.567C199.762 157.533 201.062 151.659 201.062 145.641H181.062ZM199.359 115.828L198.191 125.76L199.119 125.869L200.051 125.804L199.359 115.828ZM198.375 114.703L188.377 114.511L188.358 115.51L188.536 116.492L198.375 114.703ZM198.797 92.7188L208.795 92.9106L208.797 92.8147V92.7188H198.797ZM199.875 91.875L201.086 81.9485L200.483 81.875H199.875V91.875ZM207.562 92.8125L206.352 102.739L206.955 102.812H207.562V92.8125ZM208.5 95.1094H198.5V105.214L208.604 105.109L208.5 95.1094ZM244.453 94.7344L244.557 104.734L245.047 104.729L245.534 104.676L244.453 94.7344ZM253.078 93.7969V83.7969H252.536L251.998 83.8554L253.078 93.7969ZM254.109 94.8281L264.087 95.5038L264.109 95.1663V94.8281H254.109ZM252.703 115.594L262.626 116.834L262.661 116.553L262.68 116.269L252.703 115.594ZM251.812 116.344L251.345 126.333L251.579 126.344H251.812V116.344ZM243.797 115.969L242.153 125.833L242.738 125.93L243.33 125.958L243.797 115.969ZM243.047 115.688L234.472 120.832L235.105 121.888L235.976 122.759L243.047 115.688ZM242.859 114.844L232.86 114.722L232.855 115.167L232.889 115.611L242.859 114.844ZM243 103.266L252.999 103.387L253.124 93.1075L242.845 93.2668L243 103.266ZM230.906 103.453L230.751 93.4543L220.751 93.6094L220.907 103.609L230.906 103.453ZM231.703 154.453L221.704 154.609L221.867 165.03L232.272 164.437L231.703 154.453ZM240.75 153.938L243.175 144.236L241.7 143.867L240.181 143.954L240.75 153.938ZM241.5 154.828H231.5V154.885L231.501 154.941L241.5 154.828ZM241.594 163.125L251.559 163.955L251.598 163.485L251.593 163.012L241.594 163.125ZM240.75 164.25V154.25H240.641L240.531 154.252L240.75 164.25ZM212.906 164.859V174.859H213.016L213.125 174.857L212.906 164.859ZM211.781 163.922L201.787 163.569L201.764 164.244L201.831 164.917L211.781 163.922ZM212.109 154.641L222.103 154.994L222.109 154.817V154.641H212.109ZM212.859 153.75L213.476 143.769L213.168 143.75H212.859V153.75ZM221.203 154.266L220.586 164.247L231.382 164.914L231.202 154.099L221.203 154.266ZM220.359 103.734L230.358 103.567L230.184 93.1731L219.805 93.7498L220.359 103.734ZM208.547 104.391L207.992 94.406L198.502 94.9332L198.547 104.438L208.547 104.391ZM208.594 114.328L218.58 114.854L218.595 114.568L218.594 114.281L208.594 114.328ZM207.469 115.266L207.034 105.275L206.905 105.281L206.777 105.29L207.469 115.266ZM200.528 105.897C202.526 106.132 204.647 107.094 206.241 108.915C207.653 110.529 208.077 112.161 208.214 112.914L188.536 116.492C188.798 117.933 189.449 120.096 191.189 122.085C193.111 124.281 195.662 125.462 198.191 125.76L200.528 105.897ZM208.373 114.895L208.795 92.9106L188.799 92.5269L188.377 114.511L208.373 114.895ZM208.797 92.7188C208.797 94.7218 208.033 97.7669 205.229 99.961C202.892 101.79 200.546 101.875 199.875 101.875V81.875C198.485 81.875 195.6 82.1005 192.903 84.2109C189.74 86.6862 188.797 90.1532 188.797 92.7188H208.797ZM198.664 101.801L206.352 102.739L208.773 82.886L201.086 81.9485L198.664 101.801ZM207.562 102.812C205.941 102.812 203.013 102.282 200.72 99.6438C198.658 97.2732 198.5 94.7564 198.5 93.8906H218.5C218.5 92.3061 218.186 89.2503 215.812 86.5202C213.205 83.523 209.809 82.8125 207.562 82.8125V102.812ZM198.5 93.8906V95.1094H218.5V93.8906H198.5ZM208.604 105.109L244.557 104.734L244.349 84.7349L208.396 85.1099L208.604 105.109ZM245.534 104.676L254.159 103.738L251.998 83.8554L243.373 84.7929L245.534 104.676ZM253.078 103.797C251.88 103.797 249.145 103.491 246.78 101.126C244.416 98.7608 244.109 96.0258 244.109 94.8281H264.109C264.109 92.9429 263.631 89.6923 260.923 86.9836C258.214 84.2749 254.963 83.7969 253.078 83.7969V103.797ZM244.132 94.1525L242.726 114.918L262.68 116.269L264.087 95.5038L244.132 94.1525ZM242.78 114.353C242.965 112.873 243.695 110.442 245.992 108.507C248.215 106.636 250.589 106.344 251.812 106.344V126.344C253.567 126.344 256.356 125.927 258.875 123.805C261.469 121.621 262.378 118.814 262.626 116.834L242.78 114.353ZM252.28 106.355L244.264 105.98L243.33 125.958L251.345 126.333L252.28 106.355ZM245.441 106.105C245.646 106.139 246.165 106.235 246.839 106.488C247.432 106.71 248.79 107.288 250.118 108.616L235.976 122.759C238.516 125.299 241.62 125.744 242.153 125.833L245.441 106.105ZM251.622 110.543C252.015 111.197 252.255 111.778 252.4 112.184C252.548 112.599 252.638 112.947 252.692 113.19C252.795 113.657 252.823 113.985 252.83 114.077L232.889 115.611C232.927 116.104 233.067 118.491 234.472 120.832L251.622 110.543ZM252.859 114.965L252.999 103.387L233.001 103.144L232.86 114.722L252.859 114.965ZM242.845 93.2668L230.751 93.4543L231.061 113.452L243.155 113.264L242.845 93.2668ZM220.907 103.609L221.704 154.609L241.702 154.297L240.905 103.297L220.907 103.609ZM232.272 164.437L241.319 163.921L240.181 143.954L231.134 144.469L232.272 164.437ZM238.325 163.639C237.197 163.357 235.276 162.61 233.663 160.695C231.971 158.686 231.5 156.441 231.5 154.828H251.5C251.5 152.747 250.904 150.119 248.962 147.813C247.099 145.601 244.803 144.643 243.175 144.236L238.325 163.639ZM231.501 154.941L231.594 163.238L251.593 163.012L251.499 154.715L231.501 154.941ZM231.628 162.295C231.667 161.826 231.857 159.94 233.336 157.969C234.149 156.885 235.289 155.869 236.757 155.164C238.203 154.47 239.607 154.25 240.75 154.25V174.25C243.903 174.25 247.165 172.864 249.336 169.969C251.096 167.622 251.458 165.174 251.559 163.955L231.628 162.295ZM240.531 154.252L212.687 154.862L213.125 174.857L240.969 174.248L240.531 154.252ZM212.906 154.859C213.959 154.859 216.291 155.092 218.511 156.943C220.868 158.907 221.58 161.411 221.732 162.927L201.831 164.917C202.045 167.057 202.975 170.03 205.708 172.307C208.303 174.47 211.166 174.859 212.906 174.859V154.859ZM221.775 164.275L222.103 154.994L202.116 154.287L201.787 163.569L221.775 164.275ZM222.109 154.641C222.109 155.506 221.963 158.019 219.946 160.414C217.652 163.139 214.645 163.75 212.859 163.75V143.75C210.574 143.75 207.192 144.51 204.648 147.531C202.381 150.224 202.109 153.182 202.109 154.641H222.109ZM212.243 163.731L220.586 164.247L221.82 144.285L213.476 143.769L212.243 163.731ZM231.202 154.099L230.358 103.567L210.361 103.901L211.205 154.433L231.202 154.099ZM219.805 93.7498L207.992 94.406L209.102 114.375L220.914 113.719L219.805 93.7498ZM198.547 104.438L198.594 114.375L218.594 114.281L218.547 104.343L198.547 104.438ZM198.608 113.803C198.704 111.973 199.48 109.332 201.887 107.326C204.013 105.554 206.2 105.311 207.034 105.275L207.903 125.256C209.457 125.189 212.19 124.774 214.691 122.69C217.473 120.371 218.452 117.277 218.58 114.854L198.608 113.803ZM206.777 105.29L198.667 105.852L200.051 125.804L208.161 125.242L206.777 105.29ZM286.266 156.047L296.264 156.215L296.266 156.131V156.047H286.266ZM286.125 164.391L276.126 164.222L276.125 164.306V164.391H286.125ZM285 165.328L284.72 175.324L284.86 175.328H285V165.328ZM263.25 164.719L263.53 154.723L263.39 154.719H263.25V164.719ZM262.406 163.594L272.398 163.177L272.397 163.16L272.396 163.142L262.406 163.594ZM262.031 155.297L252.108 154.057L252.003 154.9L252.041 155.748L262.031 155.297ZM262.781 154.406L263.499 144.432L262.078 144.33L260.686 144.628L262.781 154.406ZM269.297 154.875L268.579 164.849L279.376 165.626L279.297 154.802L269.297 154.875ZM268.922 103.828L278.922 103.755L278.849 93.9003L268.995 93.8284L268.922 103.828ZM262.5 103.781L262.573 93.7815L262.536 93.7812H262.5V103.781ZM261.656 102.75L251.697 101.845L251.656 102.296V102.75H261.656ZM262.406 94.5L272.365 95.4054L272.369 95.3679L272.372 95.3305L262.406 94.5ZM262.688 93.7969L267.832 102.372L268.037 102.249L268.234 102.117L262.688 93.7969ZM263.531 93.5156L263.916 83.523L262.895 83.4837L261.887 83.6517L263.531 93.5156ZM285.422 94.3594L286.327 84.4004L286.068 84.3768L285.807 84.3668L285.422 94.3594ZM286.078 94.6406L277.503 99.7856L277.769 100.228L278.078 100.641L286.078 94.6406ZM286.266 95.4375L296.256 95.8773L296.283 95.2733L296.236 94.6705L286.266 95.4375ZM285.938 102.891L295.896 103.796L295.918 103.564L295.928 103.33L285.938 102.891ZM279.375 103.922V93.9219H269.402L269.375 103.894L279.375 103.922ZM279.234 155.156L269.234 155.129L269.207 165.156H279.234V155.156ZM285.516 165.156C283.73 165.156 280.723 164.545 278.429 161.82C276.412 159.425 276.266 156.912 276.266 156.047H296.266C296.266 154.588 295.994 151.63 293.727 148.938C291.183 145.916 287.801 145.156 285.516 145.156V165.156ZM276.267 155.878L276.126 164.222L296.124 164.559L296.264 156.215L276.267 155.878ZM276.125 164.391C276.125 162.634 276.739 159.664 279.442 157.412C281.795 155.45 284.233 155.328 285 155.328V175.328C286.517 175.328 289.517 175.05 292.246 172.776C295.323 170.211 296.125 166.772 296.125 164.391H276.125ZM285.28 155.332L263.53 154.723L262.97 174.715L284.72 175.324L285.28 155.332ZM263.25 154.719C265.652 154.719 268.622 155.746 270.641 158.438C272.243 160.574 272.375 162.646 272.398 163.177L252.415 164.01C252.468 165.291 252.757 167.926 254.641 170.438C256.94 173.504 260.317 174.719 263.25 174.719V154.719ZM272.396 163.142L272.021 154.845L252.041 155.748L252.416 164.045L272.396 163.142ZM271.954 156.537C271.816 157.64 271.356 159.43 269.915 161.141C268.397 162.943 266.481 163.84 264.877 164.184L260.686 144.628C258.644 145.066 256.384 146.159 254.617 148.258C252.926 150.266 252.309 152.454 252.108 154.057L271.954 156.537ZM262.064 164.38L268.579 164.849L270.014 144.901L263.499 144.432L262.064 164.38ZM279.297 154.802L278.922 103.755L258.922 103.902L259.297 154.948L279.297 154.802ZM268.995 93.8284L262.573 93.7815L262.427 113.781L268.849 113.828L268.995 93.8284ZM262.5 93.7812C264.349 93.7812 267.359 94.4436 269.607 97.1911C271.54 99.5544 271.656 101.985 271.656 102.75H251.656C251.656 104.202 251.913 107.149 254.128 109.856C256.657 112.947 260.088 113.781 262.5 113.781V93.7812ZM271.615 103.655L272.365 95.4054L252.447 93.5946L251.697 101.845L271.615 103.655ZM272.372 95.3305C272.341 95.6972 272.24 96.6192 271.785 97.7569C271.327 98.9017 270.231 100.933 267.832 102.372L257.543 85.2219C254.988 86.7548 253.767 88.9498 253.215 90.3291C252.666 91.7012 252.503 92.9278 252.441 93.6695L272.372 95.3305ZM268.234 102.117C267.398 102.675 266.655 102.968 266.201 103.12C265.731 103.276 265.367 103.348 265.175 103.38L261.887 83.6517C260.948 83.8082 259.048 84.205 257.14 85.4764L268.234 102.117ZM263.146 103.508L285.037 104.352L285.807 84.3668L263.916 83.523L263.146 103.508ZM284.517 104.318C284.07 104.278 283.088 104.152 281.905 103.645C280.671 103.116 278.826 101.991 277.503 99.7856L294.653 89.4957C291.908 84.9205 287.186 84.4786 286.327 84.4004L284.517 104.318ZM278.078 100.641C277.429 99.775 277.06 98.9792 276.858 98.4746C276.647 97.9484 276.528 97.5084 276.461 97.224C276.332 96.6765 276.302 96.2904 276.295 96.2045L296.236 94.6705C296.198 94.1783 296.121 93.4564 295.929 92.6432C295.783 92.0223 295.354 90.3413 294.078 88.6406L278.078 100.641ZM276.275 94.9977L275.947 102.451L295.928 103.33L296.256 95.8773L276.275 94.9977ZM275.979 101.985C276.081 100.855 276.568 98.4853 278.709 96.4376C280.924 94.319 283.46 93.9219 284.859 93.9219V113.922C286.915 113.922 289.959 113.353 292.533 110.89C295.033 108.499 295.731 105.614 295.896 103.796L275.979 101.985ZM284.859 93.9219H279.375V113.922H284.859V93.9219ZM269.375 103.894L269.234 155.129L289.234 155.184L289.375 103.949L269.375 103.894ZM279.234 165.156H285.516V145.156H279.234V165.156ZM345.047 93.2812V83.2812H344.274L343.51 83.4001L345.047 93.2812ZM347.016 95.1094L357.012 95.3845L357.023 94.9907L357.003 94.5972L347.016 95.1094ZM346.453 115.547L336.457 115.272L336.453 115.409V115.547H346.453ZM345.422 116.766V106.766H345.303L345.184 106.768L345.422 116.766ZM337.547 116.953V126.953H337.666L337.785 126.95L337.547 116.953ZM336.562 115.875L326.596 116.689L326.598 116.715L326.6 116.741L336.562 115.875ZM335.578 103.828L345.545 103.014L344.958 95.8369L337.966 94.1174L335.578 103.828ZM316.875 103.875L320.767 113.086L320.822 113.063L320.876 113.04L316.875 103.875ZM311.391 108.469L303.108 102.866L303.104 102.872L303.099 102.878L311.391 108.469ZM317.812 155.344L314.042 164.606L314.049 164.608L314.055 164.611L317.812 155.344ZM336.75 154.969L339.815 164.487L347.025 162.165L346.743 154.596L336.75 154.969ZM336.516 148.688L326.577 147.583L326.495 148.32L326.523 149.06L336.516 148.688ZM337.641 147.656L335.977 137.796L335.915 137.806L335.852 137.818L337.641 147.656ZM345.422 146.344V136.344H344.584L343.759 136.483L345.422 146.344ZM346.406 147.422L356.354 146.402L356.318 146.053L356.258 145.708L346.406 147.422ZM348.281 165.703H358.281V165.192L358.229 164.683L348.281 165.703ZM347.203 166.547L346.337 156.584L346.334 156.585L347.203 166.547ZM339.141 167.25V177.25H339.576L340.009 177.212L339.141 167.25ZM337.172 165.422L327.183 165.898L327.184 165.916L327.185 165.934L337.172 165.422ZM337.078 163.453L347.067 162.977L346.316 147.206L332.379 154.626L337.078 163.453ZM311.109 164.438L306.603 173.365L306.62 173.373L306.637 173.382L311.109 164.438ZM302.859 157.125L294.606 162.772L294.616 162.786L294.626 162.8L302.859 157.125ZM303.656 101.062L311.338 107.464L311.346 107.456L311.353 107.447L303.656 101.062ZM336.609 94.5938L333.496 104.097L335.776 104.844L338.146 104.475L336.609 94.5938ZM345.047 103.281C344.152 103.281 341.817 103.058 339.672 101.066C337.487 99.0375 337.081 96.6494 337.029 95.6215L357.003 94.5972C356.887 92.3506 356.122 89.0484 353.281 86.4103C350.48 83.8092 347.192 83.2812 345.047 83.2812V103.281ZM337.019 94.8342L336.457 115.272L356.449 115.822L357.012 95.3845L337.019 94.8342ZM336.453 115.547C336.453 114.782 336.58 112.343 338.561 110.002C340.814 107.34 343.746 106.766 345.422 106.766V126.766C347.785 126.766 351.233 125.988 353.829 122.92C356.155 120.172 356.453 117.125 356.453 115.547H336.453ZM345.184 106.768L337.309 106.956L337.785 126.95L345.66 126.763L345.184 106.768ZM337.547 106.953C339.392 106.953 342.102 107.599 344.24 109.941C346.121 112 346.454 114.19 346.525 115.009L326.6 116.741C326.734 118.279 327.262 121.007 329.471 123.426C331.937 126.128 335.108 126.953 337.547 126.953V106.953ZM346.529 115.061L345.545 103.014L325.611 104.643L326.596 116.689L346.529 115.061ZM337.966 94.1174C333.536 93.0281 329.208 92.4219 325.031 92.4219V112.422C327.292 112.422 329.995 112.753 333.19 113.539L337.966 94.1174ZM325.031 92.4219C320.866 92.4219 316.697 93.0412 312.874 94.7105L320.876 113.04C321.491 112.771 322.759 112.422 325.031 112.422V92.4219ZM312.983 94.6635C308.865 96.4037 305.555 99.2479 303.108 102.866L319.673 114.072C320.101 113.44 320.448 113.221 320.767 113.086L312.983 94.6635ZM303.099 102.878C298.567 109.601 297.219 119.066 297.219 129.141H317.219C317.219 119.903 318.652 115.587 319.682 114.059L303.099 102.878ZM297.219 129.141C297.219 137.092 298.159 144.356 300.596 150.385C303.121 156.629 307.442 161.919 314.042 164.606L321.583 146.082C321.12 145.893 320.145 145.379 319.138 142.889C318.044 140.183 317.219 135.783 317.219 129.141H297.219ZM314.055 164.611C317.882 166.163 322.048 166.75 326.25 166.75V146.75C323.827 146.75 322.368 146.4 321.57 146.076L314.055 164.611ZM326.25 166.75C330.762 166.75 335.301 165.941 339.815 164.487L333.685 145.45C330.824 146.371 328.363 146.75 326.25 146.75V166.75ZM346.743 154.596L346.509 148.315L326.523 149.06L326.757 155.342L346.743 154.596ZM346.454 149.792C346.251 151.625 345.402 153.729 343.601 155.379C341.97 156.874 340.273 157.342 339.429 157.495L335.852 137.818C334.321 138.096 332.092 138.798 330.087 140.636C327.911 142.631 326.843 145.187 326.577 147.583L346.454 149.792ZM339.304 157.517L347.085 156.204L343.759 136.483L335.977 137.796L339.304 157.517ZM345.422 156.344C343.165 156.344 340.598 155.455 338.682 153.356C337.07 151.591 336.666 149.778 336.554 149.135L356.258 145.708C356.022 144.347 355.391 141.995 353.451 139.871C351.207 137.412 348.21 136.344 345.422 136.344V156.344ZM336.458 148.442L338.333 166.723L358.229 164.683L356.354 146.402L336.458 148.442ZM338.281 165.703C338.281 163.215 339.353 160.367 341.849 158.414C343.843 156.853 345.794 156.632 346.337 156.584L348.069 176.509C349.331 176.4 351.821 176.006 354.175 174.164C357.03 171.93 358.281 168.691 358.281 165.703H338.281ZM346.334 156.585L338.272 157.288L340.009 177.212L348.072 176.509L346.334 156.585ZM339.141 157.25C340.036 157.25 342.37 157.473 344.515 159.465C346.7 161.494 347.106 163.882 347.159 164.91L327.185 165.934C327.3 168.181 328.065 171.483 330.906 174.121C333.708 176.722 336.995 177.25 339.141 177.25V157.25ZM347.161 164.946L347.067 162.977L327.089 163.929L327.183 165.898L347.161 164.946ZM332.379 154.626C329.458 156.181 326.475 156.922 323.297 156.922V176.922C329.807 176.922 336.011 175.35 341.777 172.28L332.379 154.626ZM323.297 156.922C319.588 156.922 317.153 156.279 315.582 155.493L306.637 173.382C311.69 175.908 317.38 176.922 323.297 176.922V156.922ZM315.615 155.51C313.925 154.657 312.423 153.38 311.093 151.45L294.626 162.8C297.733 167.308 301.732 170.906 306.603 173.365L315.615 155.51ZM311.112 151.478C308.265 147.316 306.156 140.148 306.156 128.625H286.156C286.156 142.039 288.517 153.872 294.606 162.772L311.112 151.478ZM306.156 128.625C306.156 117.302 308.493 110.879 311.338 107.464L295.974 94.6607C288.819 103.246 286.156 115.198 286.156 128.625H306.156ZM311.353 107.447C313.657 104.669 317.1 102.812 323.203 102.812V82.8125C312.369 82.8125 302.78 86.456 295.96 94.6779L311.353 107.447ZM323.203 102.812C327.841 102.812 331.185 103.34 333.496 104.097L339.722 85.0907C334.784 83.4729 329.19 82.8125 323.203 82.8125V102.812ZM338.146 104.475L346.584 103.162L343.51 83.4001L335.072 84.7126L338.146 104.475ZM394.125 103.312L394.234 93.3131L394.179 93.3125H394.125V103.312ZM393.281 102.281L383.318 101.424L383.281 101.852V102.281H393.281ZM394.031 93.5625L403.994 94.4195L404.006 94.2848L404.014 94.1497L394.031 93.5625ZM395.156 92.5781L395.348 82.58L394.388 82.5616L393.443 82.726L395.156 92.5781ZM414.703 92.9531L415.807 83.0143L415.353 82.9637L414.895 82.955L414.703 92.9531ZM415.547 94.0312H405.547V94.115L405.548 94.1988L415.547 94.0312ZM415.688 102.422H425.688V102.338L425.686 102.254L415.688 102.422ZM414.609 103.453L414.519 113.453L414.564 113.453H414.609V103.453ZM409.406 103.406L409.496 93.4067L404.252 93.3594L401.231 97.6471L409.406 103.406ZM390.188 130.688L382.012 124.928L377.873 130.805L382.123 136.601L390.188 130.688ZM407.719 154.594L399.655 160.507L402.397 164.247L407.023 164.57L407.719 154.594ZM415.781 155.156L415.085 165.132L415.131 165.135L415.176 165.138L415.781 155.156ZM417.328 156.75H407.328V156.784L407.328 156.818L417.328 156.75ZM417.375 163.641H427.375V163.607L427.375 163.573L417.375 163.641ZM415.641 165.75L415.908 175.746L416.044 175.743L416.18 175.735L415.641 165.75ZM403.359 166.078L402.454 176.037L403.039 176.09L403.626 176.075L403.359 166.078ZM401.719 165.141L393.35 170.614L393.476 170.808L393.612 170.996L401.719 165.141ZM382.312 135.469L390.682 129.995L387.603 125.288L381.982 125.474L382.312 135.469ZM376.641 135.656L376.31 125.662L366.641 125.981V135.656H376.641ZM376.641 154.688H366.641V164.688H376.641V154.688ZM382.266 155.578H372.266V155.764L372.273 155.95L382.266 155.578ZM382.594 164.391L392.544 165.386L392.612 164.704L392.587 164.019L382.594 164.391ZM381.469 165.328L381.404 175.328L381.436 175.328H381.469V165.328ZM359.719 165.188L359.783 155.188L359.751 155.188H359.719V165.188ZM358.875 164.062L348.883 164.468L348.884 164.479L358.875 164.062ZM358.5 154.828L348.577 153.588L348.475 154.408L348.508 155.234L358.5 154.828ZM359.25 153.938L359.861 143.956L358.494 143.872L357.155 144.159L359.25 153.938ZM366.141 154.359L365.53 164.341L376.141 164.99V154.359H366.141ZM366.141 103.125H376.141V92.0982L365.166 93.1726L366.141 103.125ZM359.438 103.781V113.781H359.926L360.412 113.734L359.438 103.781ZM358.594 102.75L348.619 103.462L348.623 103.521L348.628 103.58L358.594 102.75ZM357.938 93.5625L347.983 92.6144L347.904 93.4439L347.963 94.275L357.938 93.5625ZM359.062 92.5781V102.578H359.083L359.104 102.578L359.062 92.5781ZM381.422 92.4844L382.327 82.5254L381.855 82.4825L381.38 82.4845L381.422 92.4844ZM382.078 92.7656L373.503 97.9106L373.769 98.3529L374.078 98.7656L382.078 92.7656ZM382.266 93.5625L392.225 94.4584L392.3 93.6274L392.236 92.7955L382.266 93.5625ZM381.469 102.422L391.377 103.773L391.408 103.546L391.429 103.318L381.469 102.422ZM380.391 103.453L379.767 113.434L380.078 113.453H380.391V103.453ZM376.641 103.219L377.264 93.2382L366.641 92.5742V103.219H376.641ZM376.641 127.594H366.641V138.249L377.274 137.574L376.641 127.594ZM382.547 127.219L383.181 137.199L388.124 136.885L390.87 132.762L382.547 127.219ZM398.438 103.359L406.761 108.903L416.979 93.5603L398.546 93.36L398.438 103.359ZM394.125 93.3125C395.974 93.3125 398.984 93.9749 401.232 96.7223C403.165 99.0857 403.281 101.516 403.281 102.281H383.281C383.281 103.734 383.538 106.68 385.753 109.387C388.282 112.478 391.713 113.312 394.125 113.312V93.3125ZM403.244 103.138L403.994 94.4195L384.068 92.7055L383.318 101.424L403.244 103.138ZM404.014 94.1497C403.884 96.3568 402.897 98.7146 400.921 100.444C399.231 101.923 397.53 102.315 396.87 102.43L393.443 82.726C392.064 82.9658 389.816 83.5852 387.751 85.3922C385.4 87.4495 384.21 90.237 384.049 92.9753L404.014 94.1497ZM394.964 102.576L414.511 102.951L414.895 82.955L395.348 82.58L394.964 102.576ZM413.599 102.892C411.889 102.702 409.358 101.856 407.461 99.4326C405.735 97.2279 405.547 94.9869 405.547 94.0312H425.547C425.547 92.4194 425.218 89.6706 423.211 87.1064C421.033 84.3234 418.079 83.2667 415.807 83.0143L413.599 102.892ZM405.548 94.1988L405.689 102.589L425.686 102.254L425.545 93.8637L405.548 94.1988ZM405.688 102.422C405.688 101.108 406.054 98.3144 408.506 95.9689C410.875 93.7028 413.536 93.4531 414.609 93.4531V113.453C416.402 113.453 419.602 113.032 422.33 110.422C425.142 107.732 425.688 104.423 425.688 102.422H405.688ZM414.699 93.4535L409.496 93.4067L409.316 113.406L414.519 113.453L414.699 93.4535ZM401.231 97.6471L382.012 124.928L398.363 136.447L417.581 109.165L401.231 97.6471ZM382.123 136.601L399.655 160.507L415.783 148.68L398.252 124.774L382.123 136.601ZM407.023 164.57L415.085 165.132L416.477 145.18L408.415 144.618L407.023 164.57ZM415.176 165.138C414.189 165.078 411.829 164.692 409.766 162.566C407.652 160.389 407.328 157.917 407.328 156.75H427.328C427.328 154.583 426.746 151.346 424.117 148.637C421.538 145.98 418.405 145.297 416.386 145.175L415.176 165.138ZM407.328 156.818L407.375 163.709L427.375 163.573L427.328 156.682L407.328 156.818ZM407.375 163.641C407.375 163.063 407.476 160.943 409.217 158.825C411.165 156.455 413.691 155.841 415.101 155.765L416.18 175.735C418.746 175.597 422.139 174.599 424.666 171.527C426.985 168.706 427.375 165.562 427.375 163.641H407.375ZM415.374 155.754L403.092 156.082L403.626 176.075L415.908 175.746L415.374 155.754ZM404.265 156.119C405.21 156.205 406.308 156.493 407.395 157.114C408.481 157.735 409.279 158.529 409.826 159.286L393.612 170.996C395.702 173.89 398.868 175.711 402.454 176.037L404.265 156.119ZM410.088 159.667L390.682 129.995L373.943 140.942L393.35 170.614L410.088 159.667ZM381.982 125.474L376.31 125.662L376.971 145.651L382.643 145.463L381.982 125.474ZM366.641 135.656V154.688H386.641V135.656H366.641ZM376.641 164.688H381.516V144.688H376.641V164.688ZM381.516 164.688C379.73 164.688 376.723 164.076 374.429 161.352C372.412 158.956 372.266 156.443 372.266 155.578H392.266C392.266 154.119 391.994 151.161 389.727 148.469C387.183 145.447 383.801 144.688 381.516 144.688V164.688ZM372.273 155.95L372.601 164.763L392.587 164.019L392.259 155.206L372.273 155.95ZM372.643 163.396C372.795 161.88 373.507 159.376 375.864 157.412C378.084 155.561 380.416 155.328 381.469 155.328V175.328C383.209 175.328 386.072 174.939 388.667 172.776C391.4 170.499 392.33 167.526 392.544 165.386L372.643 163.396ZM381.533 155.328L359.783 155.188L359.654 175.187L381.404 175.328L381.533 155.328ZM359.719 155.188C362.121 155.188 365.091 156.215 367.109 158.906C368.712 161.043 368.844 163.115 368.866 163.646L348.884 164.479C348.937 165.76 349.226 168.395 351.109 170.906C353.409 173.973 356.786 175.188 359.719 175.188V155.188ZM368.867 163.657L368.492 154.422L348.508 155.234L348.883 164.468L368.867 163.657ZM368.423 156.068C368.285 157.171 367.824 158.961 366.383 160.672C364.866 162.474 362.95 163.372 361.345 163.716L357.155 144.159C355.112 144.597 352.853 145.69 351.085 147.789C349.394 149.797 348.778 151.985 348.577 153.588L368.423 156.068ZM358.639 163.919L365.53 164.341L366.752 144.378L359.861 143.956L358.639 163.919ZM376.141 154.359V103.125H356.141V154.359H376.141ZM365.166 93.1726L358.463 93.8288L360.412 113.734L367.115 113.077L365.166 93.1726ZM359.438 93.7812C359.915 93.7812 361.023 93.8211 362.379 94.3052C363.838 94.8263 365.917 96.003 367.356 98.4019L350.206 108.692C353.252 113.768 358.606 113.781 359.438 113.781V93.7812ZM367.356 98.4019C368.035 99.5332 368.298 100.516 368.398 100.94C368.513 101.429 368.548 101.785 368.559 101.92L348.628 103.58C348.679 104.191 348.856 106.441 350.206 108.692L367.356 98.4019ZM368.568 102.038L367.912 92.85L347.963 94.275L348.619 103.462L368.568 102.038ZM367.892 94.5106C367.762 95.8815 367.14 98.3469 364.851 100.35C362.625 102.298 360.221 102.578 359.062 102.578V82.5781C357.217 82.5781 354.281 83.0228 351.681 85.2985C349.016 87.6297 348.176 90.5872 347.983 92.6144L367.892 94.5106ZM359.104 102.578L381.464 102.484L381.38 82.4845L359.021 82.5782L359.104 102.578ZM380.517 102.443C380.07 102.403 379.088 102.277 377.905 101.77C376.671 101.241 374.826 100.116 373.503 97.9106L390.653 87.6207C387.908 83.0455 383.186 82.6036 382.327 82.5254L380.517 102.443ZM374.078 98.7656C373.429 97.9 373.06 97.1042 372.858 96.5996C372.647 96.0734 372.528 95.6334 372.461 95.349C372.332 94.8015 372.302 94.4154 372.295 94.3295L392.236 92.7955C392.198 92.3033 392.121 91.5814 391.929 90.7682C391.783 90.1473 391.354 88.4663 390.078 86.7656L374.078 98.7656ZM372.306 92.6666L371.509 101.526L391.429 103.318L392.225 94.4584L372.306 92.6666ZM371.56 101.071C371.7 100.045 372.223 97.8757 374.217 95.9689C376.345 93.9335 378.82 93.4531 380.391 93.4531V113.453C382.586 113.453 385.554 112.801 388.041 110.422C390.394 108.171 391.143 105.486 391.377 103.773L371.56 101.071ZM381.014 93.4726L377.264 93.2382L376.017 113.199L379.767 113.434L381.014 93.4726ZM366.641 103.219V127.594H386.641V103.219H366.641ZM377.274 137.574L383.181 137.199L381.913 117.239L376.007 117.614L377.274 137.574ZM390.87 132.762L406.761 108.903L390.114 97.8161L374.224 121.676L390.87 132.762ZM398.546 93.36L394.234 93.3131L394.016 113.312L398.329 113.359L398.546 93.36ZM463.219 154.922L463.038 164.92L463.128 164.922H463.219V154.922ZM464.062 155.953L474.021 156.858L474.062 156.407V155.953H464.062ZM463.312 164.203L453.354 163.298L453.35 163.335L453.347 163.373L463.312 164.203ZM462.984 164.953L468.129 173.528L468.333 173.406L468.531 173.274L462.984 164.953ZM462.188 165.188L461.906 175.184L462.875 175.211L463.831 175.051L462.188 165.188ZM437.25 164.484L437.532 154.488L437.391 154.484H437.25V164.484ZM436.406 163.406L426.415 162.992L426.39 163.583L426.436 164.173L436.406 163.406ZM436.734 155.484L426.775 154.579L426.753 154.824L426.743 155.071L436.734 155.484ZM437.812 154.453L438.004 144.455L437.908 144.453H437.812V154.453ZM445.172 154.594L444.981 164.592L455.082 164.785L455.171 154.683L445.172 154.594ZM445.312 138.797L455.312 138.886L455.336 136.18L453.992 133.83L445.312 138.797ZM425.25 103.734L433.93 98.768L430.813 93.3219L424.554 93.7586L425.25 103.734ZM421.219 104.016V114.016H421.567L421.915 113.991L421.219 104.016ZM419.906 102.516H429.906V102.222L429.889 101.928L419.906 102.516ZM419.438 94.5469H409.438V94.8407L409.455 95.1341L419.438 94.5469ZM444.656 94.6875L454.638 95.2924L454.656 94.9903V94.6875H444.656ZM444.188 102.422L434.206 101.817L434.205 101.826L434.205 101.835L444.188 102.422ZM443.812 103.453L438 95.3158L437.697 95.5324L437.411 95.7709L443.812 103.453ZM442.781 103.734L442.418 113.728L442.912 113.746L443.405 113.715L442.781 103.734ZM437.625 103.547L437.988 93.5535L421.18 92.9423L428.672 108.001L437.625 103.547ZM451.594 131.625L442.641 136.079L451.687 154.262L460.583 136.006L451.594 131.625ZM465.094 103.922L474.083 108.303L481.279 93.5368L464.858 93.9247L465.094 103.922ZM459.141 104.062V114.062H459.259L459.377 114.06L459.141 104.062ZM458.344 103.828L450.535 110.075L450.881 110.508L451.273 110.899L458.344 103.828ZM458.062 102.984L448.103 103.879L448.131 104.193L448.179 104.505L458.062 102.984ZM457.359 95.1562L447.382 94.4911L447.329 95.2717L447.399 96.0509L457.359 95.1562ZM458.766 93.75V103.75H458.842L458.919 103.749L458.766 93.75ZM480.141 93.4219L481.046 83.4629L480.518 83.4149L479.987 83.4231L480.141 93.4219ZM481.172 94.9219L491.153 95.538L491.172 95.2302V94.9219H481.172ZM480.703 102.516L490.684 103.139L490.684 103.132L480.703 102.516ZM480.375 103.594L487.446 110.665L487.718 110.393L487.968 110.102L480.375 103.594ZM475.219 103.875V93.875H469.339L466.48 99.0136L475.219 103.875ZM455.766 138.844L447.027 133.982L445.819 136.154L445.768 138.638L455.766 138.844ZM455.438 154.781L445.44 154.575L445.233 164.598L455.257 164.78L455.438 154.781ZM463.219 164.922C461.37 164.922 458.36 164.259 456.112 161.512C454.178 159.149 454.062 156.718 454.062 155.953H474.062C474.062 154.501 473.806 151.554 471.591 148.847C469.062 145.756 465.63 144.922 463.219 144.922V164.922ZM454.104 155.048L453.354 163.298L473.271 165.108L474.021 156.858L454.104 155.048ZM453.347 163.373C453.403 162.704 453.79 159.064 457.437 156.633L468.531 173.274C472.553 170.592 473.16 166.452 473.278 165.034L453.347 163.373ZM457.839 156.378C458.762 155.825 459.539 155.579 459.846 155.488C460.213 155.381 460.469 155.336 460.544 155.324L463.831 175.051C464.394 174.958 466.258 174.651 468.129 173.528L457.839 156.378ZM462.469 155.191L437.532 154.488L436.968 174.48L461.906 175.184L462.469 155.191ZM437.25 154.484C437.727 154.484 438.836 154.524 440.191 155.008C441.651 155.529 443.729 156.706 445.169 159.105L428.019 169.395C431.064 174.471 436.419 174.484 437.25 174.484V154.484ZM445.169 159.105C445.562 159.76 445.802 160.341 445.947 160.746C446.095 161.161 446.185 161.51 446.238 161.753C446.342 162.219 446.37 162.547 446.377 162.639L426.436 164.173C426.474 164.667 426.614 167.054 428.019 169.395L445.169 159.105ZM446.398 163.82L446.726 155.898L426.743 155.071L426.415 162.992L446.398 163.82ZM446.693 156.39C446.591 157.52 446.104 159.89 443.963 161.937C441.748 164.056 439.212 164.453 437.812 164.453V144.453C435.757 144.453 432.713 145.022 430.139 147.485C427.638 149.876 426.941 152.761 426.775 154.579L446.693 156.39ZM437.621 164.451L444.981 164.592L445.363 144.596L438.004 144.455L437.621 164.451ZM455.171 154.683L455.312 138.886L435.313 138.708L435.172 154.505L455.171 154.683ZM453.992 133.83L433.93 98.768L416.57 108.701L436.633 143.763L453.992 133.83ZM424.554 93.7586L420.523 94.0399L421.915 113.991L425.946 113.71L424.554 93.7586ZM421.219 94.0156C422.696 94.0156 425.523 94.4993 427.76 97.0556C429.774 99.3568 429.906 101.778 429.906 102.516H409.906C409.906 104.253 410.258 107.424 412.709 110.226C415.383 113.282 418.867 114.016 421.219 114.016V94.0156ZM429.889 101.928L429.42 93.9597L409.455 95.1341L409.923 103.103L429.889 101.928ZM429.438 94.5469C429.438 94.8716 429.416 95.7691 429.049 96.9227C428.67 98.1122 427.741 100.108 425.578 101.653L413.953 85.3783C409.406 88.6261 409.438 93.6884 409.438 94.5469H429.438ZM425.578 101.653C424.185 102.648 422.887 102.997 422.25 103.13C421.566 103.272 421.068 103.281 420.891 103.281V83.2812C419.978 83.2812 416.864 83.299 413.953 85.3783L425.578 101.653ZM420.891 103.281H443.531V83.2812H420.891V103.281ZM443.531 103.281C443.239 103.281 442.089 103.272 440.639 102.72C439.017 102.102 436.407 100.513 435.152 97.1675L453.879 90.145C452.531 86.55 449.71 84.7733 447.759 84.0301C445.982 83.353 444.386 83.2812 443.531 83.2812V103.281ZM435.152 97.1675C434.873 96.4236 434.762 95.8123 434.713 95.4527C434.662 95.079 434.656 94.8099 434.656 94.6875H454.656C454.656 93.7169 454.577 92.0068 453.879 90.145L435.152 97.1675ZM434.675 94.0826L434.206 101.817L454.169 103.027L454.638 95.2924L434.675 94.0826ZM434.205 101.835C434.223 101.531 434.291 100.71 434.672 99.6607C435.057 98.6018 435.968 96.7674 438 95.3158L449.625 111.59C453.865 108.562 454.118 103.893 454.17 103.009L434.205 101.835ZM437.411 95.7709C438.805 94.6093 440.157 94.1638 440.783 93.993C441.471 93.8052 441.979 93.765 442.157 93.7538L443.405 113.715C444.187 113.666 447.394 113.486 450.214 111.135L437.411 95.7709ZM443.145 93.741L437.988 93.5535L437.262 113.54L442.418 113.728L443.145 93.741ZM428.672 108.001L442.641 136.079L460.547 127.171L446.578 99.0927L428.672 108.001ZM460.583 136.006L474.083 108.303L456.104 99.5412L442.604 127.244L460.583 136.006ZM464.858 93.9247L458.904 94.0653L459.377 114.06L465.33 113.919L464.858 93.9247ZM459.141 94.0625C459.594 94.0625 460.439 94.1036 461.482 94.4103C462.555 94.7259 464.047 95.3892 465.415 96.7571L451.273 110.899C454.251 113.877 457.848 114.062 459.141 114.062V94.0625ZM466.152 97.5812C467.091 98.7546 467.503 99.8468 467.667 100.338C467.851 100.892 467.922 101.306 467.946 101.464L448.179 104.505C448.282 105.173 448.661 107.733 450.535 110.075L466.152 97.5812ZM468.022 102.09L467.319 94.2616L447.399 96.0509L448.103 103.879L468.022 102.09ZM467.337 95.8214C467.274 96.7702 466.903 99.0985 464.829 101.173C462.646 103.356 460.101 103.75 458.766 103.75V83.75C456.556 83.75 453.338 84.3789 450.687 87.0305C448.144 89.5734 447.507 92.6048 447.382 94.4911L467.337 95.8214ZM458.919 103.749L480.294 103.421L479.987 83.4231L458.612 83.7512L458.919 103.749ZM479.235 103.381C477.075 103.184 474.431 102.065 472.674 99.509C471.231 97.4101 471.172 95.4503 471.172 94.9219H491.172C491.172 93.456 490.941 90.7774 489.154 88.1785C487.054 85.1226 483.894 83.7218 481.046 83.4629L479.235 103.381ZM471.191 94.3058L470.722 101.9L490.684 103.132L491.153 95.538L471.191 94.3058ZM470.723 101.892C470.74 101.606 470.798 101.012 471.031 100.249C471.262 99.4897 471.748 98.2929 472.782 97.0858L487.968 110.102C490.282 107.402 490.606 104.376 490.684 103.139L470.723 101.892ZM473.304 96.5227C474.873 94.954 476.556 94.3594 477.441 94.1285C478.354 93.8901 479.043 93.875 479.297 93.875V113.875C480.173 113.875 484.217 113.894 487.446 110.665L473.304 96.5227ZM479.297 93.875H475.219V113.875H479.297V93.875ZM466.48 99.0136L447.027 133.982L464.504 143.705L483.958 108.736L466.48 99.0136ZM445.768 138.638L445.44 154.575L465.435 154.987L465.764 139.05L445.768 138.638ZM455.257 164.78L463.038 164.92L463.399 144.924L455.618 144.783L455.257 164.78Z" fill="white" fill-opacity="0.51"/>
<path d="M57.6111 178.556C53.1755 176.091 47.9813 172.312 43.5823 168.779C43.8087 169.153 44.0251 169.556 44.2222 170C45.0047 171.761 47.5494 172.833 47.9444 174.611C48.7617 178.289 52.6145 180.106 54.2222 183C56.0163 186.229 57.5844 187.76 60 190.444C62.1958 192.884 62.6618 196.065 64.5556 198.5C68.4689 203.531 70.8924 209.222 73.4444 215.056C76.4093 221.832 78 230.408 78 238C78 245.117 80 252.17 80 259.222C80 270.332 80.709 289.115 92.5556 294.5C110.014 302.436 109.757 268.952 112.556 260.556C114.956 253.353 120.597 249.734 127.778 250C130.515 250.101 132.068 253.571 135.056 253.944C137.552 254.257 140.472 254.149 143 254C146.032 253.822 147.709 250.183 151 250C152.838 249.898 155.035 247.352 157.111 247.056C168.031 245.496 178.426 249.104 188.889 250.056C195.229 250.632 201.862 255.453 207.5 258.056C210.955 259.65 214.581 263.178 217 266C221.464 271.208 227.838 280.54 228 287.667C228.26 299.101 226.901 308.457 224.5 319.5C222.205 330.058 219.62 339.211 220 350.222C220.221 356.621 219.162 382 227.611 382C231.778 382 235.74 380.185 240 380C241.882 379.918 251.005 378.185 252 376.444C253.705 373.46 258.335 373.709 260.056 370.556C261.854 367.258 262 365.668 262 361.778C262 350.116 254.551 339.114 253.222 327.556C251.139 309.427 244.64 280.976 260.5 267.556C266.995 262.06 273.143 257.42 281.444 255.222C286.531 253.876 297.29 254.015 300.222 259C303.574 264.698 312.141 265 318.056 265C321.53 265 324.127 263 328 263C331.868 263 335.351 263.03 339.111 264.056C348.448 266.602 354.681 269.362 359 278C363.204 286.408 364 294.791 364 304C364 308.341 364.718 313.494 363.778 317.778C363.172 320.539 360.303 324.339 358.944 327.056C355.567 333.81 352.69 341.158 356.556 348.889C359.341 354.461 372.935 351.388 376.222 348.222C384.668 340.089 380.768 325.634 380.056 314.944C379.526 307.006 378 299.517 378 291.5C378 288.861 377.04 283.496 378.222 281C379.391 278.532 382.131 272.433 385.556 273.056C388.354 273.564 389.853 274.518 392.444 273.222C395.473 271.708 398.011 271.181 399.778 268C401.316 265.231 404.019 260.678 407.444 260.056C413.957 258.872 425.492 262.603 430 267.111C435.693 272.804 438.277 280 447.778 280C451.657 280 463.423 277.782 464 272.778C465.552 259.328 477.406 237.636 494 244.444C501.606 247.565 515.015 246.51 520 254.611C525.002 262.74 531 269.812 531 280C531 295.27 520.187 319.324 537.222 329.778C546.029 335.182 561.598 338.782 571 331.944C584.77 321.93 584.08 308.292 583.056 293.444C581.741 274.379 571.271 256.929 571 237.444C570.784 221.9 573.031 208.585 577.556 193.778C581.202 181.844 590.322 171.499 592.778 159.222C593.943 153.394 592.866 154.789 589.278 156.056C576.656 160.51 563.617 164.132 552.222 171.222C544.844 175.813 535.463 180.08 526.944 181.5C517.578 183.061 507.919 187.485 498.889 190.611C469.558 200.764 438.705 207.836 408 212.222C372.253 217.329 336.738 218 300.611 218C280.348 218 260.243 217.266 240 217C221.738 216.76 203.501 210.281 185.222 210C176.239 209.862 167.918 206.893 159 205.778C148.984 204.526 138.516 203.534 128.667 201.444C120.983 199.814 112.934 197.887 105.556 195.222C97.1221 192.177 87.6619 190.998 79.5 187.5C72.0624 184.312 64.769 182.532 57.6111 178.556Z" fill="#FEC226"/>
<path d="M16 138C24.7247 146.981 30.6548 157.844 40.2222 166C45.1197 170.175 51.9774 175.426 57.6111 178.556C64.769 182.532 72.0624 184.312 79.5 187.5C87.6619 190.998 97.1221 192.177 105.556 195.222C112.934 197.887 120.983 199.814 128.667 201.444C138.516 203.534 148.984 204.526 159 205.778C167.918 206.893 176.239 209.862 185.222 210C203.501 210.281 221.738 216.76 240 217C260.243 217.266 280.348 218 300.611 218C336.738 218 372.253 217.329 408 212.222C438.705 207.836 469.558 200.764 498.889 190.611C507.919 187.485 517.578 183.061 526.944 181.5C535.463 180.08 544.844 175.813 552.222 171.222C563.617 164.132 576.656 160.51 589.278 156.056C592.866 154.789 593.943 153.394 592.778 159.222C590.322 171.499 581.202 181.844 577.556 193.778C573.031 208.585 570.784 221.9 571 237.444C571.271 256.929 581.741 274.379 583.056 293.444C584.08 308.292 584.77 321.93 571 331.944C561.598 338.782 546.029 335.182 537.222 329.778C520.187 319.324 531 295.27 531 280C531 269.812 525.002 262.74 520 254.611C515.015 246.51 501.606 247.565 494 244.444C477.406 237.636 465.552 259.328 464 272.778C463.423 277.782 451.657 280 447.778 280C438.277 280 435.693 272.804 430 267.111C425.492 262.603 413.957 258.872 407.444 260.056C404.019 260.678 401.316 265.231 399.778 268C398.011 271.181 395.473 271.708 392.444 273.222C389.853 274.518 388.354 273.564 385.556 273.056C382.131 272.433 379.391 278.532 378.222 281C377.04 283.496 378 288.861 378 291.5C378 299.517 379.526 307.006 380.056 314.944C380.768 325.634 384.668 340.089 376.222 348.222C372.935 351.388 359.341 354.461 356.556 348.889C352.69 341.158 355.567 333.81 358.944 327.056C360.303 324.339 363.172 320.539 363.778 317.778C364.718 313.494 364 308.341 364 304C364 294.791 363.204 286.408 359 278C354.681 269.362 348.448 266.602 339.111 264.056C335.351 263.03 331.868 263 328 263C324.127 263 321.53 265 318.056 265C312.141 265 303.574 264.698 300.222 259C297.29 254.015 286.531 253.876 281.444 255.222C273.143 257.42 266.995 262.06 260.5 267.556C244.64 280.976 251.139 309.427 253.222 327.556C254.551 339.114 262 350.116 262 361.778C262 365.668 261.854 367.258 260.056 370.556C258.335 373.709 253.705 373.46 252 376.444C251.005 378.185 241.882 379.918 240 380C235.74 380.185 231.778 382 227.611 382C219.162 382 220.221 356.621 220 350.222C219.62 339.211 222.205 330.058 224.5 319.5C226.901 308.457 228.26 299.101 228 287.667C227.838 280.54 221.464 271.208 217 266C214.581 263.178 210.955 259.65 207.5 258.056C201.862 255.453 195.229 250.632 188.889 250.056C178.426 249.104 168.031 245.496 157.111 247.056C155.035 247.352 152.838 249.898 151 250C147.709 250.183 146.032 253.822 143 254C140.472 254.149 137.552 254.257 135.056 253.944C132.068 253.571 130.515 250.101 127.778 250C120.597 249.734 114.956 253.353 112.556 260.556C109.757 268.952 110.014 302.436 92.5556 294.5C80.709 289.115 80 270.332 80 259.222C80 252.17 78 245.117 78 238C78 230.408 76.4093 221.832 73.4444 215.056C70.8924 209.222 68.4689 203.531 64.5556 198.5C62.6617 196.065 62.1958 192.884 60 190.444C57.5844 187.76 56.0163 186.229 54.2222 183C52.6145 180.106 48.7617 178.289 47.9444 174.611C47.5494 172.833 45.0047 171.761 44.2222 170C43.2459 167.803 41.7979 166.596 41 165" stroke="#FEC226" stroke-linecap="round" stroke-linejoin="round"/>
</svg>
